<?xml version="1.0" encoding="UTF-8" standalone="no"?>
<!DOCTYPE svg PUBLIC "-//W3C//DTD SVG 1.1//EN"
 "http://www.w3.org/Graphics/SVG/1.1/DTD/svg11.dtd">
<!-- Generated by graphviz version 2.50.0 (20211204.2007)
 -->
<!-- Title: structs Pages: 1 -->
<svg width="900pt" height="849pt"
 viewBox="0.00 0.00 648.00 611.50" xmlns="http://www.w3.org/2000/svg" xmlns:xlink="http://www.w3.org/1999/xlink">
<g id="graph0" class="graph" transform="scale(0.57 0.57) rotate(0) translate(4 1487)">
<title>structs</title>
<polygon fill="white" stroke="transparent" points="-4,4 -4,-1487 1576,-1487 1576,4 -4,4"/>
<!-- [&lt;The advance variationmainLineMove 4. main line&lt;IMG src=&#39;./advance&#45;move&#45;4.jpeg&#39;/&gt;&gt;]; -->
<g id="node1" class="node">
<title>[&lt;The advance variationmainLineMove 4. main line&lt;IMG src=&#39;./advance&#45;move&#45;4.jpeg&#39;/&gt;&gt;];</title>
<polygon fill="none" stroke="black" points="11.5,-896 11.5,-917 138.5,-917 138.5,-896 11.5,-896"/>
<text text-anchor="start" x="14.5" y="-902.8" font-family="Times,serif" font-size="14.00">The advance variation</text>
<polygon fill="#f0cda6" stroke="transparent" points="11.5,-873 11.5,-894 138.5,-894 138.5,-873 11.5,-873"/>
<polygon fill="none" stroke="black" points="11.5,-873 11.5,-894 138.5,-894 138.5,-873 11.5,-873"/>
<text text-anchor="start" x="48.5" y="-879.8" font-family="Times,serif" font-size="14.00">mainLine</text>
<polygon fill="none" stroke="black" points="11.5,-850 11.5,-871 138.5,-871 138.5,-850 11.5,-850"/>
<text text-anchor="start" x="14.5" y="-856.8" font-family="Times,serif" font-size="14.00">Move 4. main line</text>
<polygon fill="none" stroke="black" points="25,-748 25,-848 125,-848 125,-748 25,-748"/>
<image xlink:href="./advance-move-4.jpeg" width="94px" height="94px" preserveAspectRatio="xMinYMin meet" x="28" y="-845"/>
<polygon fill="none" stroke="black" points="8,-745.5 8,-920.5 141,-920.5 141,-745.5 8,-745.5"/>
</g>
<!-- [&lt;variations of the main line up&lt;br&gt;&lt;/br&gt;to move 4.&gt;]; -->
<g id="node2" class="node">
<title>[&lt;variations of the main line up&lt;br&gt;&lt;/br&gt;to move 4.&gt;];</title>
<polygon fill="none" stroke="black" points="196,-1269 196,-1305 364,-1305 364,-1269 196,-1269"/>
<text text-anchor="start" x="199" y="-1290.8" font-family="Times,serif" font-size="14.00">variations of the main line up</text>
<text text-anchor="start" x="250" y="-1275.8" font-family="Times,serif" font-size="14.00">to move 4.</text>
<polygon fill="none" stroke="black" points="193,-1266 193,-1308 367,-1308 367,-1266 193,-1266"/>
</g>
<!-- [&lt;The advance variationmainLineMove 4. main line&lt;IMG src=&#39;./advance&#45;move&#45;4.jpeg&#39;/&gt;&gt;];&#45;&gt;[&lt;variations of the main line up&lt;br&gt;&lt;/br&gt;to move 4.&gt;]; -->
<g id="edge1" class="edge">
<title>[&lt;The advance variationmainLineMove 4. main line&lt;IMG src=&#39;./advance&#45;move&#45;4.jpeg&#39;/&gt;&gt;];&#45;&gt;[&lt;variations of the main line up&lt;br&gt;&lt;/br&gt;to move 4.&gt;];</title>
<path fill="none" stroke="black" d="M134.38,-924.63C139.55,-933.75 144.51,-942.98 149,-952 201.65,-1057.81 247.57,-1190.48 267.89,-1252.31"/>
<polygon fill="black" stroke="black" points="264.61,-1253.54 271.04,-1261.96 271.26,-1251.37 264.61,-1253.54"/>
</g>
<!-- [&lt;Options for black at move 5.&gt;]; -->
<g id="node3" class="node">
<title>[&lt;Options for black at move 5.&gt;];</title>
<polygon fill="none" stroke="black" points="198,-822 198,-843 362,-843 362,-822 198,-822"/>
<text text-anchor="start" x="201" y="-828.8" font-family="Times,serif" font-size="14.00">Options for black at move 5.</text>
<polygon fill="none" stroke="black" points="195,-819.5 195,-846.5 365,-846.5 365,-819.5 195,-819.5"/>
</g>
<!-- [&lt;The advance variationmainLineMove 4. main line&lt;IMG src=&#39;./advance&#45;move&#45;4.jpeg&#39;/&gt;&gt;];&#45;&gt;[&lt;Options for black at move 5.&gt;]; -->
<g id="edge2" class="edge">
<title>[&lt;The advance variationmainLineMove 4. main line&lt;IMG src=&#39;./advance&#45;move&#45;4.jpeg&#39;/&gt;&gt;];&#45;&gt;[&lt;Options for black at move 5.&gt;];</title>
<path fill="none" stroke="black" d="M149.26,-833C158.19,-833 167.44,-833 176.7,-833"/>
<polygon fill="black" stroke="black" points="176.73,-836.5 186.73,-833 176.73,-829.5 176.73,-836.5"/>
</g>
<!-- [&lt;Options at move 8. for black&gt;]; -->
<g id="node4" class="node">
<title>[&lt;Options at move 8. for black&gt;];</title>
<polygon fill="none" stroke="black" points="198,-439 198,-460 362,-460 362,-439 198,-439"/>
<text text-anchor="start" x="201" y="-445.8" font-family="Times,serif" font-size="14.00">Options at move 8. for black</text>
<polygon fill="none" stroke="black" points="195,-436.5 195,-463.5 365,-463.5 365,-436.5 195,-436.5"/>
</g>
<!-- [&lt;The advance variationmainLineMove 4. main line&lt;IMG src=&#39;./advance&#45;move&#45;4.jpeg&#39;/&gt;&gt;];&#45;&gt;[&lt;Options at move 8. for black&gt;]; -->
<g id="edge3" class="edge">
<title>[&lt;The advance variationmainLineMove 4. main line&lt;IMG src=&#39;./advance&#45;move&#45;4.jpeg&#39;/&gt;&gt;];&#45;&gt;[&lt;Options at move 8. for black&gt;];</title>
<path fill="none" stroke="black" d="M124.24,-741.26C170.06,-655.04 235.76,-531.39 264.55,-477.19"/>
<polygon fill="black" stroke="black" points="267.73,-478.68 269.33,-468.21 261.54,-475.39 267.73,-478.68"/>
</g>
<!-- [&lt;3. .. c5 instead of 3. .. Bf5can play 3. .. c5&gt;]; -->
<g id="node5" class="node">
<title>[&lt;3. .. c5 instead of 3. .. Bf5can play 3. .. c5&gt;];</title>
<polygon fill="none" stroke="black" points="521.5,-1455 521.5,-1476 672.5,-1476 672.5,-1455 521.5,-1455"/>
<text text-anchor="start" x="524.5" y="-1461.8" font-family="Times,serif" font-size="14.00">3. .. c5 instead of 3. .. Bf5</text>
<polygon fill="none" stroke="black" points="521.5,-1432 521.5,-1453 672.5,-1453 672.5,-1432 521.5,-1432"/>
<text text-anchor="start" x="524.5" y="-1438.8" font-family="Times,serif" font-size="14.00">can play 3. .. c5</text>
<polygon fill="none" stroke="black" points="518,-1429 518,-1479 675,-1479 675,-1429 518,-1429"/>
</g>
<!-- [&lt;variations of the main line up&lt;br&gt;&lt;/br&gt;to move 4.&gt;];&#45;&gt;[&lt;3. .. c5 instead of 3. .. Bf5can play 3. .. c5&gt;]; -->
<g id="edge4" class="edge">
<title>[&lt;variations of the main line up&lt;br&gt;&lt;/br&gt;to move 4.&gt;];&#45;&gt;[&lt;3. .. c5 instead of 3. .. Bf5can play 3. .. c5&gt;];</title>
<path fill="none" stroke="black" d="M309.6,-1312.03C334.94,-1333.27 373.6,-1363.48 411,-1384 438.92,-1399.32 470.88,-1412.74 500.27,-1423.62"/>
<polygon fill="black" stroke="black" points="499.12,-1426.93 509.72,-1427.07 501.52,-1420.35 499.12,-1426.93"/>
</g>
<!-- [&lt;against 4. h4if 4. h4 played instead don&#39;t play 4. .. e6 4. .. h6 or h5&lt;br&gt;&lt;/br&gt;instead&gt;]; -->
<g id="node6" class="node">
<title>[&lt;against 4. h4if 4. h4 played instead don&#39;t play 4. .. e6 4. .. h6 or h5&lt;br&gt;&lt;/br&gt;instead&gt;];</title>
<polygon fill="none" stroke="black" points="851,-1355 851,-1376 1153,-1376 1153,-1355 851,-1355"/>
<text text-anchor="start" x="967" y="-1361.8" font-family="Times,serif" font-size="14.00">against 4. h4</text>
<polygon fill="none" stroke="black" points="851,-1317 851,-1353 1153,-1353 1153,-1317 851,-1317"/>
<text text-anchor="start" x="854" y="-1338.8" font-family="Times,serif" font-size="14.00">if 4. h4 played instead don&#39;t play 4. .. e6 4. .. h6 or h5</text>
<text text-anchor="start" x="854" y="-1323.8" font-family="Times,serif" font-size="14.00">instead</text>
<polygon fill="none" stroke="black" points="848,-1314.5 848,-1379.5 1156,-1379.5 1156,-1314.5 848,-1314.5"/>
</g>
<!-- [&lt;variations of the main line up&lt;br&gt;&lt;/br&gt;to move 4.&gt;];&#45;&gt;[&lt;against 4. h4if 4. h4 played instead don&#39;t play 4. .. e6 4. .. h6 or h5&lt;br&gt;&lt;/br&gt;instead&gt;]; -->
<g id="edge5" class="edge">
<title>[&lt;variations of the main line up&lt;br&gt;&lt;/br&gt;to move 4.&gt;];&#45;&gt;[&lt;against 4. h4if 4. h4 played instead don&#39;t play 4. .. e6 4. .. h6 or h5&lt;br&gt;&lt;/br&gt;instead&gt;];</title>
<path fill="none" stroke="black" d="M375.13,-1294.84C490.24,-1304.44 687.31,-1320.86 829.6,-1332.72"/>
<polygon fill="black" stroke="black" points="829.49,-1336.22 839.75,-1333.56 830.08,-1329.24 829.49,-1336.22"/>
</g>
<!-- [&lt;against early 4.Nc3if 4. Nc3 played instead
e6, harrassment starts and goal is to bring&lt;br&gt;&lt;/br&gt;knight to f4 and weaken
black king side by exchanging the&lt;br&gt;&lt;/br&gt;black bishop for the knight 4. Nc3
e6 5. g4 Bg6 6. Nge2 c5&lt;br&gt;&lt;/br&gt;balance the flank attack with a central attack&lt;IMG src=&#39;./4&#45;Nc3&#45;harrash&#45;bishop.jpeg&#39;/&gt;&gt;]; -->
<g id="node7" class="node">
<title>[&lt;against early 4.Nc3if 4. Nc3 played instead
e6, harrassment starts and goal is to bring&lt;br&gt;&lt;/br&gt;knight to f4 and weaken
black king side by exchanging the&lt;br&gt;&lt;/br&gt;black bishop for the knight 4. Nc3
e6 5. g4 Bg6 6. Nge2 c5&lt;br&gt;&lt;/br&gt;balance the flank attack with a central attack&lt;IMG src=&#39;./4&#45;Nc3&#45;harrash&#45;bishop.jpeg&#39;/&gt;&gt;];</title>
<polygon fill="none" stroke="black" points="1233,-1310 1233,-1331 1561,-1331 1561,-1310 1233,-1310"/>
<text text-anchor="start" x="1344" y="-1316.8" font-family="Times,serif" font-size="14.00">against early 4.Nc3</text>
<polygon fill="none" stroke="black" points="1233,-1227 1233,-1308 1561,-1308 1561,-1227 1233,-1227"/>
<text text-anchor="start" x="1236" y="-1293.8" font-family="Times,serif" font-size="14.00">if 4. Nc3 played instead, that is about harrassing the Bf6,</text>
<text text-anchor="start" x="1236" y="-1278.8" font-family="Times,serif" font-size="14.00">after 4. ..e6, harrassment starts and goal is to bring</text>
<text text-anchor="start" x="1236" y="-1263.8" font-family="Times,serif" font-size="14.00">knight to f4 and weakenblack king side by exchanging the</text>
<text text-anchor="start" x="1236" y="-1248.8" font-family="Times,serif" font-size="14.00">black bishop for the knight 4. Nc3e6 5. g4 Bg6 6. Nge2 c5</text>
<text text-anchor="start" x="1236" y="-1233.8" font-family="Times,serif" font-size="14.00">balance the flank attack with a central attack</text>
<polygon fill="none" stroke="black" points="1347,-1125 1347,-1225 1447,-1225 1447,-1125 1347,-1125"/>
<image xlink:href="./4-Nc3-harrash-bishop.jpeg" width="94px" height="94px" preserveAspectRatio="xMinYMin meet" x="1350" y="-1222"/>
<polygon fill="none" stroke="black" points="1230,-1122 1230,-1334 1564,-1334 1564,-1122 1230,-1122"/>
</g>
<!-- [&lt;variations of the main line up&lt;br&gt;&lt;/br&gt;to move 4.&gt;];&#45;&gt;[&lt;against early 4.Nc3if 4. Nc3 played instead
e6, harrassment starts and goal is to bring&lt;br&gt;&lt;/br&gt;knight to f4 and weaken
black king side by exchanging the&lt;br&gt;&lt;/br&gt;black bishop for the knight 4. Nc3
e6 5. g4 Bg6 6. Nge2 c5&lt;br&gt;&lt;/br&gt;balance the flank attack with a central attack&lt;IMG src=&#39;./4&#45;Nc3&#45;harrash&#45;bishop.jpeg&#39;/&gt;&gt;]; -->
<g id="edge6" class="edge">
<title>[&lt;variations of the main line up&lt;br&gt;&lt;/br&gt;to move 4.&gt;];&#45;&gt;[&lt;against early 4.Nc3if 4. Nc3 played instead
e6, harrassment starts and goal is to bring&lt;br&gt;&lt;/br&gt;knight to f4 and weaken
black king side by exchanging the&lt;br&gt;&lt;/br&gt;black bishop for the knight 4. Nc3
e6 5. g4 Bg6 6. Nge2 c5&lt;br&gt;&lt;/br&gt;balance the flank attack with a central attack&lt;IMG src=&#39;./4&#45;Nc3&#45;harrash&#45;bishop.jpeg&#39;/&gt;&gt;];</title>
<path fill="none" stroke="black" d="M375.1,-1282.02C559.49,-1272.26 971.28,-1250.47 1211.73,-1237.75"/>
<polygon fill="black" stroke="black" points="1212.19,-1241.23 1221.99,-1237.21 1211.82,-1234.24 1212.19,-1241.23"/>
</g>
<!-- [&lt;5 .. c5move 7. .. Bg6 is an inaccurracy play 7. .. Ne7 instead. Bf8&lt;br&gt;&lt;/br&gt;difficult
to develop -->
<g id="node8" class="node">
<title>[&lt;5 .. c5move 7. .. Bg6 is an inaccurracy play 7. .. Ne7 instead. Bf8&lt;br&gt;&lt;/br&gt;difficult
to develop</title>
<polygon fill="none" stroke="black" points="429.5,-1117 429.5,-1138 763.5,-1138 763.5,-1117 429.5,-1117"/>
<text text-anchor="start" x="579" y="-1123.8" font-family="Times,serif" font-size="14.00">5 .. c5</text>
<polygon fill="none" stroke="black" points="429.5,-1079 429.5,-1115 763.5,-1115 763.5,-1079 429.5,-1079"/>
<text text-anchor="start" x="432.5" y="-1100.8" font-family="Times,serif" font-size="14.00">move 7. .. Bg6 is an inaccurracy play 7. .. Ne7 instead. Bf8</text>
<text text-anchor="start" x="432.5" y="-1085.8" font-family="Times,serif" font-size="14.00">difficultto develop, Nc6 pinned, pressure on d5</text>
<polygon fill="none" stroke="black" points="546.5,-977 546.5,-1077 646.5,-1077 646.5,-977 546.5,-977"/>
<image xlink:href="./4-c5-risks.jpeg" width="94px" height="94px" preserveAspectRatio="xMinYMin meet" x="549.5" y="-1074"/>
<polygon fill="none" stroke="black" points="426.5,-974.5 426.5,-1141.5 766.5,-1141.5 766.5,-974.5 426.5,-974.5"/>
</g>
<!-- [&lt;Options for black at move 5.&gt;];&#45;&gt;[&lt;5 .. c5move 7. .. Bg6 is an inaccurracy play 7. .. Ne7 instead. Bf8&lt;br&gt;&lt;/br&gt;difficult
to develop -->
<g id="edge7" class="edge">
<title>[&lt;Options for black at move 5.&gt;];&#45;&gt;[&lt;5 .. c5move 7. .. Bg6 is an inaccurracy play 7. .. Ne7 instead. Bf8&lt;br&gt;&lt;/br&gt;difficult
to develop</title>
<path fill="none" stroke="black" d="M305.3,-851.24C331.31,-870.69 373.86,-902.31 411,-929 427.09,-940.56 444.05,-952.61 460.89,-964.49"/>
<polygon fill="black" stroke="black" points="458.96,-967.41 469.15,-970.3 462.99,-961.68 458.96,-967.41"/>
</g>
<!-- [&lt;5 .. Nd7 6. 0&#45;0 h6 7. Nd2 Ne7&lt;br&gt;&lt;/br&gt;8. Nb3mainLinemain line -->
<g id="node9" class="node">
<title>[&lt;5 .. Nd7 6. 0&#45;0 h6 7. Nd2 Ne7&lt;br&gt;&lt;/br&gt;8. Nb3mainLinemain line</title>
<polygon fill="none" stroke="black" points="829,-1030 829,-1066 1175,-1066 1175,-1030 829,-1030"/>
<text text-anchor="start" x="919" y="-1051.8" font-family="Times,serif" font-size="14.00">5 .. Nd7 6. 0&#45;0 h6 7. Nd2 Ne7</text>
<text text-anchor="start" x="983" y="-1036.8" font-family="Times,serif" font-size="14.00">8. Nb3</text>
<polygon fill="#f0cda6" stroke="transparent" points="829,-1007 829,-1028 1175,-1028 1175,-1007 829,-1007"/>
<polygon fill="none" stroke="black" points="829,-1007 829,-1028 1175,-1028 1175,-1007 829,-1007"/>
<text text-anchor="start" x="975.5" y="-1013.8" font-family="Times,serif" font-size="14.00">mainLine</text>
<polygon fill="none" stroke="black" points="829,-969 829,-1005 1175,-1005 1175,-969 829,-969"/>
<text text-anchor="start" x="832" y="-990.8" font-family="Times,serif" font-size="14.00">main line, move 6. Nd2 knight heading to Nb3, enables white</text>
<text text-anchor="start" x="832" y="-975.8" font-family="Times,serif" font-size="14.00">c push</text>
<polygon fill="none" stroke="black" points="952,-867 952,-967 1052,-967 1052,-867 952,-867"/>
<image xlink:href="main-line-8.jpeg" width="94px" height="94px" preserveAspectRatio="xMinYMin meet" x="955" y="-964"/>
<polygon fill="none" stroke="black" points="826,-864.5 826,-1069.5 1178,-1069.5 1178,-864.5 826,-864.5"/>
</g>
<!-- [&lt;Options for black at move 5.&gt;];&#45;&gt;[&lt;5 .. Nd7 6. 0&#45;0 h6 7. Nd2 Ne7&lt;br&gt;&lt;/br&gt;8. Nb3mainLinemain line -->
<g id="edge8" class="edge">
<title>[&lt;Options for black at move 5.&gt;];&#45;&gt;[&lt;5 .. Nd7 6. 0&#45;0 h6 7. Nd2 Ne7&lt;br&gt;&lt;/br&gt;8. Nb3mainLinemain line</title>
<path fill="none" stroke="black" d="M373.29,-850.18C482.42,-870.49 667.01,-904.84 807.85,-931.05"/>
<polygon fill="black" stroke="black" points="807.44,-934.54 817.91,-932.92 808.72,-927.65 807.44,-934.54"/>
</g>
<!-- [&lt;5. .. Ne7white can harrass Bg6 bishop with 5. Nh5&gt;]; -->
<g id="node10" class="node">
<title>[&lt;5. .. Ne7white can harrass Bg6 bishop with 5. Nh5&gt;];</title>
<polygon fill="none" stroke="black" points="1279,-779 1279,-800 1515,-800 1515,-779 1279,-779"/>
<text text-anchor="start" x="1372.5" y="-785.8" font-family="Times,serif" font-size="14.00">5. .. Ne7</text>
<polygon fill="none" stroke="black" points="1279,-756 1279,-777 1515,-777 1515,-756 1279,-756"/>
<text text-anchor="start" x="1282" y="-762.8" font-family="Times,serif" font-size="14.00">white can harrass Bg6 bishop with 5. Nh5</text>
<polygon fill="none" stroke="black" points="1276,-753 1276,-803 1518,-803 1518,-753 1276,-753"/>
</g>
<!-- [&lt;Options for black at move 5.&gt;];&#45;&gt;[&lt;5. .. Ne7white can harrass Bg6 bishop with 5. Nh5&gt;]; -->
<g id="edge9" class="edge">
<title>[&lt;Options for black at move 5.&gt;];&#45;&gt;[&lt;5. .. Ne7white can harrass Bg6 bishop with 5. Nh5&gt;];</title>
<path fill="none" stroke="black" d="M373.19,-828.45C568.94,-818.8 1027,-796.2 1257.84,-784.81"/>
<polygon fill="black" stroke="black" points="1258.17,-788.3 1267.99,-784.31 1257.83,-781.31 1258.17,-788.3"/>
</g>
<!-- [&lt;or move 8 a4to attack on the queen&#39;s side assuming black castles on the&lt;br&gt;&lt;/br&gt;queen&#39;s
side 9. .. Bg7 and 10. Ne1 c5 11. f4 c4&gt;]; -->
<g id="node11" class="node">
<title>[&lt;or move 8 a4to attack on the queen&#39;s side assuming black castles on the&lt;br&gt;&lt;/br&gt;queen&#39;s
side 9. .. Bg7 and 10. Ne1 c5 11. f4 c4&gt;];</title>
<polygon fill="none" stroke="black" points="434.5,-667 434.5,-688 759.5,-688 759.5,-667 434.5,-667"/>
<text text-anchor="start" x="560.5" y="-673.8" font-family="Times,serif" font-size="14.00">or move 8 a4</text>
<polygon fill="none" stroke="black" points="434.5,-629 434.5,-665 759.5,-665 759.5,-629 434.5,-629"/>
<text text-anchor="start" x="437.5" y="-650.8" font-family="Times,serif" font-size="14.00">to attack on the queen&#39;s side assuming black castles on the</text>
<text text-anchor="start" x="437.5" y="-635.8" font-family="Times,serif" font-size="14.00">queen&#39;sside 9. .. Bg7 and 10. Ne1 c5 11. f4 c4</text>
<polygon fill="none" stroke="black" points="431,-626.5 431,-691.5 762,-691.5 762,-626.5 431,-626.5"/>
</g>
<!-- [&lt;Options for black at move 5.&gt;];&#45;&gt;[&lt;or move 8 a4to attack on the queen&#39;s side assuming black castles on the&lt;br&gt;&lt;/br&gt;queen&#39;s
side 9. .. Bg7 and 10. Ne1 c5 11. f4 c4&gt;]; -->
<g id="edge10" class="edge">
<title>[&lt;Options for black at move 5.&gt;];&#45;&gt;[&lt;or move 8 a4to attack on the queen&#39;s side assuming black castles on the&lt;br&gt;&lt;/br&gt;queen&#39;s
side 9. .. Bg7 and 10. Ne1 c5 11. f4 c4&gt;];</title>
<path fill="none" stroke="black" d="M302.45,-814.67C327.37,-793.98 370.29,-760.2 411,-737 435.08,-723.27 462.06,-710.53 487.79,-699.5"/>
<polygon fill="black" stroke="black" points="489.36,-702.63 497.2,-695.51 486.63,-696.18 489.36,-702.63"/>
</g>
<!-- [&lt;8. .. Nc8&gt;]; -->
<g id="node12" class="node">
<title>[&lt;8. .. Nc8&gt;];</title>
<polygon fill="none" stroke="black" points="569.5,-539 569.5,-560 624.5,-560 624.5,-539 569.5,-539"/>
<text text-anchor="start" x="572.5" y="-545.8" font-family="Times,serif" font-size="14.00">8. .. Nc8</text>
<polygon fill="none" stroke="black" points="566,-536.5 566,-563.5 627,-563.5 627,-536.5 566,-536.5"/>
</g>
<!-- [&lt;Options at move 8. for black&gt;];&#45;&gt;[&lt;8. .. Nc8&gt;]; -->
<g id="edge11" class="edge">
<title>[&lt;Options at move 8. for black&gt;];&#45;&gt;[&lt;8. .. Nc8&gt;];</title>
<path fill="none" stroke="black" d="M337.95,-468.11C398.07,-487.22 491.75,-517.01 548.01,-534.9"/>
<polygon fill="black" stroke="black" points="547.14,-538.3 557.73,-537.99 549.26,-531.62 547.14,-538.3"/>
</g>
<!-- [&lt;8. .. c5&gt;]; -->
<g id="node13" class="node">
<title>[&lt;8. .. c5&gt;];</title>
<polygon fill="none" stroke="black" points="980,-439 980,-460 1025,-460 1025,-439 980,-439"/>
<text text-anchor="start" x="983" y="-445.8" font-family="Times,serif" font-size="14.00">8. .. c5</text>
<polygon fill="none" stroke="black" points="976.5,-436.5 976.5,-463.5 1027.5,-463.5 1027.5,-436.5 976.5,-436.5"/>
</g>
<!-- [&lt;Options at move 8. for black&gt;];&#45;&gt;[&lt;8. .. c5&gt;]; -->
<g id="edge12" class="edge">
<title>[&lt;Options at move 8. for black&gt;];&#45;&gt;[&lt;8. .. c5&gt;];</title>
<path fill="none" stroke="black" d="M373.29,-450C530.41,-450 843.95,-450 958.14,-450"/>
<polygon fill="black" stroke="black" points="958.24,-453.5 968.24,-450 958.24,-446.5 958.24,-453.5"/>
</g>
<!-- [&lt;8. .. Bg6 or Bh7with intention to Nf5 or Ng6&gt;]; -->
<g id="node14" class="node">
<title>[&lt;8. .. Bg6 or Bh7with intention to Nf5 or Ng6&gt;];</title>
<polygon fill="none" stroke="black" points="1316,-341 1316,-362 1479,-362 1479,-341 1316,-341"/>
<text text-anchor="start" x="1352.5" y="-347.8" font-family="Times,serif" font-size="14.00">8. .. Bg6 or Bh7</text>
<polygon fill="none" stroke="black" points="1316,-318 1316,-339 1479,-339 1479,-318 1316,-318"/>
<text text-anchor="start" x="1319" y="-324.8" font-family="Times,serif" font-size="14.00">with intention to Nf5 or Ng6</text>
<polygon fill="none" stroke="black" points="1312.5,-315 1312.5,-365 1481.5,-365 1481.5,-315 1312.5,-315"/>
</g>
<!-- [&lt;Options at move 8. for black&gt;];&#45;&gt;[&lt;8. .. Bg6 or Bh7with intention to Nf5 or Ng6&gt;]; -->
<g id="edge13" class="edge">
<title>[&lt;Options at move 8. for black&gt;];&#45;&gt;[&lt;8. .. Bg6 or Bh7with intention to Nf5 or Ng6&gt;];</title>
<path fill="none" stroke="black" d="M373.32,-440.75C385.98,-439.49 398.81,-438.21 411,-437 733.48,-405 1115.38,-367.51 1294.15,-349.98"/>
<polygon fill="black" stroke="black" points="1294.72,-353.44 1304.33,-348.98 1294.04,-346.47 1294.72,-353.44"/>
</g>
<!-- [&lt;8. .. g5 9. Ne1 Qc7 10. Nd3&lt;br&gt;&lt;/br&gt;Ng6mainLinethen 11. Be3 0&#45;0&#45;0 12. Ne1 Ne7 13. a4 Kb8 14. a5 a6 15. Nd3&lt;br&gt;&lt;/br&gt;Ng6 somewhat
agressive
king&#39;s side by white; 9. Ne1 with&lt;br&gt;&lt;/br&gt;the idea of king&#39;s side pawn push; Nd3
enables Ng6 as&lt;br&gt;&lt;/br&gt;black&#39;s white bishop can be traded if g5 is played&lt;IMG src=&#39;./main&#45;line&#45;15.jpeg&#39;/&gt;&gt;]; -->
<g id="node15" class="node">
<title>[&lt;8. .. g5 9. Ne1 Qc7 10. Nd3&lt;br&gt;&lt;/br&gt;Ng6mainLinethen 11. Be3 0&#45;0&#45;0 12. Ne1 Ne7 13. a4 Kb8 14. a5 a6 15. Nd3&lt;br&gt;&lt;/br&gt;Ng6 somewhat
agressive
king&#39;s side by white; 9. Ne1 with&lt;br&gt;&lt;/br&gt;the idea of king&#39;s side pawn push; Nd3
enables Ng6 as&lt;br&gt;&lt;/br&gt;black&#39;s white bishop can be traded if g5 is played&lt;IMG src=&#39;./main&#45;line&#45;15.jpeg&#39;/&gt;&gt;];</title>
<polygon fill="none" stroke="black" points="422.5,-215 422.5,-251 771.5,-251 771.5,-215 422.5,-215"/>
<text text-anchor="start" x="520" y="-236.8" font-family="Times,serif" font-size="14.00">8. .. g5 9. Ne1 Qc7 10. Nd3</text>
<text text-anchor="start" x="585" y="-221.8" font-family="Times,serif" font-size="14.00">Ng6</text>
<polygon fill="#f0cda6" stroke="transparent" points="422.5,-192 422.5,-213 771.5,-213 771.5,-192 422.5,-192"/>
<polygon fill="none" stroke="black" points="422.5,-192 422.5,-213 771.5,-213 771.5,-192 422.5,-192"/>
<text text-anchor="start" x="570.5" y="-198.8" font-family="Times,serif" font-size="14.00">mainLine</text>
<polygon fill="none" stroke="black" points="422.5,-109 422.5,-190 771.5,-190 771.5,-109 422.5,-109"/>
<text text-anchor="start" x="425.5" y="-175.8" font-family="Times,serif" font-size="14.00">then 11. Be3 0&#45;0&#45;0 12. Ne1 Ne7 13. a4 Kb8 14. a5 a6 15. Nd3</text>
<text text-anchor="start" x="425.5" y="-160.8" font-family="Times,serif" font-size="14.00">Ng6 somewhatagressive, counters bishop harrassment and</text>
<text text-anchor="start" x="425.5" y="-145.8" font-family="Times,serif" font-size="14.00">possible pawn push on theking&#39;s side by white; 9. Ne1 with</text>
<text text-anchor="start" x="425.5" y="-130.8" font-family="Times,serif" font-size="14.00">the idea of king&#39;s side pawn push; Nd3enables Ng6 as</text>
<text text-anchor="start" x="425.5" y="-115.8" font-family="Times,serif" font-size="14.00">black&#39;s white bishop can be traded if g5 is played</text>
<polygon fill="none" stroke="black" points="547,-7 547,-107 647,-107 647,-7 547,-7"/>
<image xlink:href="./main-line-15.jpeg" width="94px" height="94px" preserveAspectRatio="xMinYMin meet" x="550" y="-104"/>
<polygon fill="none" stroke="black" points="419,-4 419,-254 774,-254 774,-4 419,-4"/>
</g>
<!-- [&lt;Options at move 8. for black&gt;];&#45;&gt;[&lt;8. .. g5 9. Ne1 Qc7 10. Nd3&lt;br&gt;&lt;/br&gt;Ng6mainLinethen 11. Be3 0&#45;0&#45;0 12. Ne1 Ne7 13. a4 Kb8 14. a5 a6 15. Nd3&lt;br&gt;&lt;/br&gt;Ng6 somewhat
agressive
king&#39;s side by white; 9. Ne1 with&lt;br&gt;&lt;/br&gt;the idea of king&#39;s side pawn push; Nd3
enables Ng6 as&lt;br&gt;&lt;/br&gt;black&#39;s white bishop can be traded if g5 is played&lt;IMG src=&#39;./main&#45;line&#45;15.jpeg&#39;/&gt;&gt;]; -->
<g id="edge14" class="edge">
<title>[&lt;Options at move 8. for black&gt;];&#45;&gt;[&lt;8. .. g5 9. Ne1 Qc7 10. Nd3&lt;br&gt;&lt;/br&gt;Ng6mainLinethen 11. Be3 0&#45;0&#45;0 12. Ne1 Ne7 13. a4 Kb8 14. a5 a6 15. Nd3&lt;br&gt;&lt;/br&gt;Ng6 somewhat
agressive
king&#39;s side by white; 9. Ne1 with&lt;br&gt;&lt;/br&gt;the idea of king&#39;s side pawn push; Nd3
enables Ng6 as&lt;br&gt;&lt;/br&gt;black&#39;s white bishop can be traded if g5 is played&lt;IMG src=&#39;./main&#45;line&#45;15.jpeg&#39;/&gt;&gt;];</title>
<path fill="none" stroke="black" d="M295.57,-431.74C318.96,-402.75 366.76,-344.76 411,-299 421.78,-287.85 433.13,-276.51 444.69,-265.25"/>
<polygon fill="black" stroke="black" points="447.16,-267.73 451.9,-258.26 442.29,-262.71 447.16,-267.73"/>
</g>
<!-- Legend -->
<g id="node16" class="node">
<title>Legend</title>
<polygon fill="none" stroke="black" points="30.5,-1004 30.5,-1029 119.5,-1029 119.5,-1004 30.5,-1004"/>
<text text-anchor="start" x="53.5" y="-1013.8" font-family="Times,serif" font-weight="bold" font-size="14.00">Legend</text>
<polygon fill="none" stroke="black" points="30.5,-979 30.5,-1004 93.5,-1004 93.5,-979 30.5,-979"/>
<text text-anchor="start" x="35.5" y="-987.8" font-family="Times,serif" font-size="14.00">mainLine</text>
<polygon fill="#f0cda6" stroke="transparent" points="93.5,-979 93.5,-1004 119.5,-1004 119.5,-979 93.5,-979"/>
<polygon fill="none" stroke="black" points="93.5,-979 93.5,-1004 119.5,-1004 119.5,-979 93.5,-979"/>
<text text-anchor="start" x="98.5" y="-987.8" font-family="Times,serif" font-size="14.00">    </text>
</g>
</g>
</svg>
